<svg width="618" height="127" viewBox="0 0 618 127" fill="none" xmlns="http://www.w3.org/2000/svg">
<path d="M45.6 126.6C37.4667 126.6 31.2667 124.267 27 119.6C22.7333 114.933 20.6 108.8 20.6 101.2V-1.09673e-05H24.6V100.2C24.6 107.533 26.4 113.133 30 117C33.6 120.867 38.8667 122.8 45.8 122.8C52.7333 122.8 58.4667 120.667 63 116.4L65.8 119.2C63.4 121.733 60.3333 123.6 56.6 124.8C53 126 49.3333 126.6 45.6 126.6ZM0.6 26.4V22.6H59.6V26.4H0.6ZM145.739 126.6C136.939 126.6 129.339 125 122.939 121.8C116.672 118.467 111.806 113.6 108.339 107.2C105.006 100.8 103.339 92.9333 103.339 83.6V22.6H107.339V83.6C107.339 96.4 110.672 106.133 117.339 112.8C124.006 119.467 133.406 122.8 145.539 122.8C154.206 122.8 161.672 121 167.939 117.4C174.206 113.667 179.006 108.467 182.339 101.8C185.672 95.1333 187.339 87.4667 187.339 78.8V22.6H191.339V126H187.339V96.8L187.739 97.4C184.806 106.333 179.739 113.467 172.539 118.8C165.339 124 156.406 126.6 145.739 126.6ZM292.752 22C301.285 22 308.618 23.6667 314.752 27C320.885 30.2 325.618 35 328.952 41.4C332.418 47.8 334.152 55.6667 334.152 65V126H330.152V65C330.152 52.2 326.885 42.4667 320.352 35.8C313.818 29.1333 304.685 25.8 292.952 25.8C283.885 25.8 276.085 27.6667 269.552 31.4C263.018 35 258.018 40.1333 254.552 46.8C251.085 53.3333 249.352 61 249.352 69.8V126H245.352V22.6H249.352V52L248.952 51.4C252.018 42.3333 257.285 35.2 264.752 30C272.218 24.6667 281.552 22 292.752 22ZM426.345 126.6C416.345 126.6 407.479 124.4 399.745 120C392.012 115.467 385.879 109.267 381.345 101.4C376.945 93.4 374.745 84.3333 374.745 74.2C374.745 63.9333 376.812 54.9333 380.945 47.2C385.079 39.3333 390.745 33.2 397.945 28.8C405.279 24.2667 413.479 22 422.545 22C431.612 22 439.745 24.2 446.945 28.6C454.279 32.8667 460.012 38.8667 464.145 46.6C468.412 54.3333 470.545 63.2 470.545 73.2C470.545 73.3333 470.545 73.4667 470.545 73.6C470.545 73.7333 470.545 73.9333 470.545 74.2H376.945V70.4H468.345L466.745 73.4C466.745 64.3333 464.812 56.2 460.945 49C457.079 41.8 451.812 36.1333 445.145 32C438.612 27.8667 431.079 25.8 422.545 25.8C414.145 25.8 406.612 27.8667 399.945 32C393.279 36.1333 388.012 41.8 384.145 49C380.412 56.2 378.545 64.3333 378.545 73.4V74.2C378.545 83.6667 380.612 92.0667 384.745 99.4C388.879 106.733 394.545 112.467 401.745 116.6C408.945 120.733 417.145 122.8 426.345 122.8C433.279 122.8 439.812 121.467 445.945 118.8C452.212 116.133 457.412 112.133 461.545 106.8L464.345 109.6C459.812 115.2 454.212 119.467 447.545 122.4C440.879 125.2 433.812 126.6 426.345 126.6ZM497.552 126V123L571.352 25.2L572.952 26.4H498.552V22.6H575.952V25.6L502.152 123.4L499.752 122.2H576.952V126H497.552ZM612.794 126.6C611.46 126.6 610.26 126.067 609.194 125C608.127 123.933 607.594 122.733 607.594 121.4C607.594 119.933 608.127 118.733 609.194 117.8C610.26 116.733 611.46 116.2 612.794 116.2C614.26 116.2 615.46 116.733 616.394 117.8C617.46 118.733 617.994 119.933 617.994 121.4C617.994 122.733 617.46 123.933 616.394 125C615.46 126.067 614.26 126.6 612.794 126.6Z" fill="black"/>
</svg>
